<svg id="Lag_1" data-name="Lag 1" xmlns="http://www.w3.org/2000/svg" viewBox="0 0 1087.62 192.98"><defs><style>.cls-1{fill:none;}.cls-2{fill:#fbf8f8;}.cls-3{fill:#fff;}</style></defs><title>cfa</title><path class="cls-1" d="M557.24,103.33a7.26,7.26,0,0,1-5.84-10.88l1.73-3H503.28l39.92,15.26,13.32-.12Z" transform="translate(-1.17 -1.33)"/><path class="cls-1" d="M410.05,111.72l-1.45-.52.48,73.92,64.75-26.75a17.09,17.09,0,0,1-.15-2.14,16.11,16.11,0,0,1,9.17-14.73c2.84-8,10-13.32,18.15-13.32a18.27,18.27,0,0,1,7.28,1.49,12.6,12.6,0,0,1,16.19,5.53,12.63,12.63,0,0,1,.79,1.78l.16.08,15.27-6.31-.06-19Z" transform="translate(-1.17 -1.33)"/><polygon class="cls-1" points="551.23 110.39 546.45 110.39 546.48 118.63 551.23 110.39"/><polygon class="cls-1" points="584.64 143.75 581.94 185.71 603.15 185.71 600.45 143.75 584.64 143.75"/><path class="cls-1" d="M676.16,111.5l-39-.56,0,4.31L648,134.18a7.15,7.15,0,0,1-.78,8.34l37.1,39.16-.54-73Z" transform="translate(-1.17 -1.33)"/><polygon class="cls-1" points="564.46 102.02 544.56 136.48 640.54 136.48 620.64 102.02 564.46 102.02"/><polygon class="cls-1" points="611.04 64.38 574.06 64.38 556.53 94.75 628.54 94.69 611.04 64.38"/><rect class="cls-1" x="261.64" y="126.54" width="18.37" height="58.97"/><rect class="cls-1" x="157.62" y="128.54" width="18.37" height="56.97"/><path class="cls-1" d="M686.81,89a3.45,3.45,0,0,1-1.11.38l-35.22,14.74,24.49.35L801.72,58.22Z" transform="translate(-1.17 -1.33)"/><polygon class="cls-1" points="592.55 7.27 563.77 57.12 621.33 57.12 592.55 7.27"/><path class="cls-1" d="M152.79,126.87a3,3,0,0,1,3-3h24.37a3,3,0,0,1,3,3v60h73.65v-62a3,3,0,0,1,3-3h24.37a3,3,0,0,1,3,3v62H402.1l-.51-78.18L207.21,38.31,29.6,102.88l2.77,84H152.79Z" transform="translate(-1.17 -1.33)"/><path class="cls-1" d="M632.93,103.9,667.5,89.45H634.3l1.7,2.94a7.26,7.26,0,0,1-5.84,10.88l.38.65Z" transform="translate(-1.17 -1.33)"/><path class="cls-1" d="M523.62,104.72,483.37,89.33,248.45,45.79l157.64,57.05a3.48,3.48,0,0,1,.43.16l4.75,1.72Z" transform="translate(-1.17 -1.33)"/><rect class="cls-1" x="960.03" y="125.54" width="11.62" height="31.8"/><rect class="cls-1" x="897.96" y="125.54" width="11.62" height="31.8"/><path class="cls-1" d="M690.77,106.17l.6,80.86,45.78,0V123.87a3,3,0,0,1,3-3h38.69a3,3,0,0,1,3,3v63.2l280.61.1.18-84L877.45,38Zm163,55.5a3,3,0,0,1-3,3H815.51a3,3,0,0,1-3-3v-37.8a3,3,0,0,1,3-3h35.23a3,3,0,0,1,3,3Zm101.46-37.8a3,3,0,0,1,3-3h52.85a3,3,0,0,1,3,3v37.8a3,3,0,0,1-3,3H958.2a3,3,0,0,1-3-3Zm-59.07-3h35.23a3,3,0,0,1,3,3v37.8a3,3,0,0,1-3,3H878.51a3,3,0,0,1-3-3v-37.8a3,3,0,0,1,3-3Z" transform="translate(-1.17 -1.33)"/><rect class="cls-1" x="915.58" y="125.54" width="11.62" height="31.8"/><rect class="cls-1" x="880.34" y="125.54" width="11.62" height="31.8"/><rect class="cls-1" x="741.98" y="125.54" width="8.32" height="60.19"/><rect class="cls-1" x="834.95" y="125.54" width="11.62" height="31.8"/><rect class="cls-1" x="756.32" y="125.54" width="18.36" height="60.19"/><rect class="cls-1" x="817.34" y="125.54" width="11.62" height="31.8"/><rect class="cls-1" x="995.26" y="125.54" width="11.62" height="31.8"/><rect class="cls-1" x="977.65" y="125.54" width="11.62" height="31.8"/><path class="cls-2" d="M25.49,190.56h0s0-.1,0-.14Z" transform="translate(-1.17 -1.33)"/><path class="cls-3" d="M850.74,120.87H815.51a3,3,0,0,0-3,3v37.8a3,3,0,0,0,3,3h35.23a3,3,0,0,0,3-3v-37.8A3,3,0,0,0,850.74,120.87Zm-20.62,37.8H818.51v-31.8h11.62Zm17.62,0H836.12v-31.8h11.62Z" transform="translate(-1.17 -1.33)"/><path class="cls-3" d="M958.2,164.67h52.85a3,3,0,0,0,3-3v-37.8a3,3,0,0,0-3-3H958.2a3,3,0,0,0-3,3v37.8A3,3,0,0,0,958.2,164.67Zm38.23-37.8h11.62v31.8H996.43Zm-17.62,0h11.62v31.8H978.82Zm-17.62,0h11.62v31.8H961.2Z" transform="translate(-1.17 -1.33)"/><path class="cls-3" d="M875.51,123.87v37.8a3,3,0,0,0,3,3h52.85a3,3,0,0,0,3-3v-37.8a3,3,0,0,0-3-3H878.51A3,3,0,0,0,875.51,123.87Zm41.23,3h11.62v31.8H916.75Zm-17.62,0h11.62v31.8H899.13Zm-17.62,0h11.62v31.8H881.51Z" transform="translate(-1.17 -1.33)"/><path class="cls-3" d="M1086.45,104.09,878.63,31l-.09,0-1.13-.4-1,.38L684.25,82.45h-54L620.6,65.71h1.9a7.27,7.27,0,0,0,6.29-10.9L600,5a7.27,7.27,0,0,0-12.58,0L558.65,54.81a7.27,7.27,0,0,0,6.29,10.9h1.91l-9.66,16.74H484.65L208.13,31.19l-.92-.33-1.13.41-.12,0L3.48,104.93a3.5,3.5,0,1,0,2.39,6.58l16.82-6.11,2.8,84.9s0,0,0,0,0,0,0,.07,0,.1,0,.14A3.49,3.49,0,0,0,29,193.83H404.25l1.41,0a4.25,4.25,0,0,0,1.41-.29l63.2-26.11a18.19,18.19,0,0,0-.52,4.27,17.91,17.91,0,0,0,3.91,11.23,16.54,16.54,0,0,0,3.83,3.47,11.76,11.76,0,0,0,14.06,7.18,12.29,12.29,0,0,0,3.52-1.52,3.46,3.46,0,1,0-3.7-5.85,5.4,5.4,0,0,1-4.12.68,3.47,3.47,0,0,0-2.56-5c-4.56-.73-8-5.13-8-10.24a10.72,10.72,0,0,1,3.59-8.15,3.47,3.47,0,0,0,1-3.83,9.92,9.92,0,0,1-.62-3.48,9,9,0,0,1,6-8.79A3.48,3.48,0,0,0,489,145c1.53-5.84,6.46-9.91,12-9.91a11.86,11.86,0,0,1,8.76,4,3.46,3.46,0,0,0,6-2.21,3.49,3.49,0,0,0-.07-.84,5.64,5.64,0,0,1,2.68,2.48,5.7,5.7,0,0,1,.6,1.72,3.49,3.49,0,0,0,2.46,2.73,8.83,8.83,0,0,1,6.06,7.13,3.46,3.46,0,0,0,6.23,1.43,3.57,3.57,0,0,0,.21-.33,8.41,8.41,0,0,1,2.72,4.12,8.59,8.59,0,0,1,.33,2.63,3.46,3.46,0,0,0-1.85,5.92,10.83,10.83,0,0,1,3.25,7.84c0,5.11-3.44,9.51-8,10.24a3.46,3.46,0,0,0-2.52,5,5.43,5.43,0,0,1-3.79-.76,3.46,3.46,0,0,0-3.7,5.85,12.36,12.36,0,0,0,6.58,1.9,11.55,11.55,0,0,0,11.11-7.9,16.62,16.62,0,0,0,3.34-3.14A18.12,18.12,0,0,0,543,162.84a15.44,15.44,0,0,0-11.19-20.26c-.11-.16-.22-.31-.33-.47l7.12-2.94a7.2,7.2,0,0,0,7.12,5.91h32.81l-2.67,41.5a7.27,7.27,0,0,0,7.25,7.73h21.21a7.27,7.27,0,0,0,7.25-7.73l-2.67-41.5H640l45.34,47.86,0,0a3.51,3.51,0,0,0,.36.31l.17.14a3.49,3.49,0,0,0,.53.29l.08,0a3.23,3.23,0,0,0,1.24.26h.12l378,.14h0a3.5,3.5,0,0,0,3.5-3.49l.18-85.08,14.5,5.1a3.5,3.5,0,0,0,2.32-6.6ZM636,99.65a7.27,7.27,0,0,0,0-7.26l-1.7-2.94h33.2L632.93,103.9l-2.4,0-.38-.65A7.26,7.26,0,0,0,636,99.65ZM564.94,58.44,593.72,8.59,622.5,58.44Zm10.3,7.27h37L629.71,96l-72,.06ZM483.37,89.33l40.24,15.39H411.28L406.52,103a3.48,3.48,0,0,0-.43-.16L248.45,45.79Zm-324.59,97.5v-57h18.37v57Zm104,0v-59h18.37v59Zm24.37,0v-62a3,3,0,0,0-3-3H259.81a3,3,0,0,0-3,3v62H183.16v-60a3,3,0,0,0-3-3H155.79a3,3,0,0,0-3,3v60H32.37l-2.77-84L207.21,38.31l194.37,70.35.51,78.18ZM525.41,137l-.16-.08a12.62,12.62,0,0,0-8.28-7.86,12.5,12.5,0,0,0-8.7.55,18.27,18.27,0,0,0-7.28-1.49c-8.12,0-15.3,5.31-18.15,13.32a16.11,16.11,0,0,0-9.17,14.73,17.09,17.09,0,0,0,.15,2.14l-64.75,26.75-.48-73.92,1.45.52H540.62l.06,19Zm17.79-32.34L503.28,89.45h49.86l-1.73,3a7.26,7.26,0,0,0,5.84,10.88l-.73,1.26Zm9.2,7L547.65,120l0-8.24ZM583.11,187l2.7-42h15.81l2.7,42Zm-37.39-49.23,19.9-34.47h56.19l19.9,34.47Zm101.5,4.71a7.15,7.15,0,0,0,.78-8.34l-10.92-18.92,0-4.31,39,.56,7.63-2.79.54,73Zm27.74-38-24.49-.35L685.7,89.39a3.45,3.45,0,0,0,1.11-.38L801.72,58.22Zm76.5,82.57h-8.32V126.87h8.32Zm24.37,0H757.49V126.87h18.36Zm286.61.11-280.61-.1v-63.2a3,3,0,0,0-3-3H740.15a3,3,0,0,0-3,3V187l-45.78,0-.6-80.86L877.45,38l185.18,65.1Z" transform="translate(-1.17 -1.33)"/></svg>