<svg id="Lag_1" data-name="Lag 1" xmlns="http://www.w3.org/2000/svg" viewBox="0 0 86.88 115.12"><defs><style>.cls-1{fill:#547dbd;}.cls-2{fill:#e42625;}.cls-3{fill:#f3984c;}.cls-4{fill:#65b230;}.cls-5{fill:#d12650;}.cls-6{fill:#83be60;}.cls-7{fill:none;stroke:#020202;stroke-miterlimit:10;}</style></defs><title>headlogo</title><circle class="cls-1" cx="72.83" cy="23" r="3.19" transform="translate(46.53 94.55) rotate(-87.46)"/><circle class="cls-2" cx="79.62" cy="30.23" r="2.55" transform="translate(45.8 108.25) rotate(-87.46)"/><circle class="cls-2" cx="67.79" cy="19.4" r="2.55" transform="translate(45.31 86.08) rotate(-87.45)"/><circle class="cls-2" cx="63.11" cy="22.5" r="2.55" transform="translate(37.75 84.37) rotate(-87.46)"/><circle class="cls-2" cx="63.97" cy="28.4" r="2.55" transform="translate(32.66 90.87) rotate(-87.46)"/><circle class="cls-2" cx="25.7" cy="26.92" r="2.55" transform="translate(-2.43 51.23) rotate(-87.46)"/><circle class="cls-2" cx="33.62" cy="29.48" r="1.25" transform="translate(2.59 61.58) rotate(-87.46)"/><circle class="cls-2" cx="7.97" cy="51.06" r="1.25" transform="translate(-43.49 56.56) rotate(-87.45)"/><circle class="cls-2" cx="7.29" cy="45.82" r="1.25" transform="translate(-38.9 50.89) rotate(-87.45)"/><circle class="cls-2" cx="35.42" cy="26.99" r="1.25" transform="translate(6.8 61) rotate(-87.46)"/><circle class="cls-2" cx="41.8" cy="29.49" r="1.25" transform="matrix(0.04, -1, 1, 0.04, 10.38, 69.76)"/><circle class="cls-2" cx="38.78" cy="34.75" r="1.25" transform="translate(2.24 71.76) rotate(-87.45)"/><circle class="cls-2" cx="33.13" cy="37.66" r="1.25" transform="translate(-6.06 68.91) rotate(-87.46)"/><circle class="cls-2" cx="34.83" cy="40.68" r="1.25" transform="matrix(0.04, -1, 1, 0.04, -7.45, 73.48)"/><circle class="cls-2" cx="39.49" cy="46.26" r="1.25" transform="translate(-8.57 83.48) rotate(-87.46)"/><circle class="cls-2" cx="31.37" cy="25.38" r="2.55" transform="translate(4.53 55.41) rotate(-87.46)"/><circle class="cls-2" cx="24.07" cy="47.27" r="2.55" transform="translate(-24.32 69.04) rotate(-87.46)"/><circle class="cls-2" cx="37.17" cy="60.07" r="2.55" transform="translate(-24.58 94.37) rotate(-87.46)"/><circle class="cls-2" cx="42.3" cy="50.39" r="2.55" transform="translate(-10.01 90.24) rotate(-87.46)"/><circle class="cls-2" cx="53.92" cy="45.53" r="1.52" transform="translate(5.95 97.21) rotate(-87.46)"/><circle class="cls-2" cx="55.84" cy="48.49" r="1.52" transform="translate(4.83 101.95) rotate(-87.46)"/><circle class="cls-3" cx="54.96" cy="55.85" r="1.55" transform="translate(-3.36 108.1) rotate(-87.47)"/><circle class="cls-3" cx="62.63" cy="52.25" r="2.46" transform="matrix(0.04, -1, 1, 0.04, 7.56, 112.32)"/><circle class="cls-3" cx="48.08" cy="49.06" r="2.46" transform="translate(-3.16 94.74) rotate(-87.46)"/><circle class="cls-3" cx="43.39" cy="45.06" r="2.46" transform="translate(-3.65 86.23) rotate(-87.46)"/><circle class="cls-3" cx="27.34" cy="55.81" r="2.46" transform="translate(-29.72 80.46) rotate(-87.46)"/><circle class="cls-3" cx="27.92" cy="70.04" r="2.46" transform="translate(-43.38 94.64) rotate(-87.45)"/><circle class="cls-3" cx="32.16" cy="82.64" r="2.46" transform="translate(-51.91 110.93) rotate(-87.46)"/><circle class="cls-3" cx="56.04" cy="5.95" r="2.46" transform="translate(0.35 14.97) rotate(-15.46)"/><circle class="cls-3" cx="24.19" cy="36.34" r="1.55" transform="translate(-13.28 58.71) rotate(-87.46)"/><circle class="cls-3" cx="36.51" cy="37.52" r="1.55" transform="translate(-2.69 72.15) rotate(-87.46)"/><circle class="cls-3" cx="4.54" cy="48.13" r="1.55" transform="translate(-43.84 50.35) rotate(-87.46)"/><circle class="cls-3" cx="25.88" cy="39.5" r="1.55" transform="translate(-14.82 63.42) rotate(-87.45)"/><circle class="cls-3" cx="25.46" cy="31.87" r="1.55" transform="translate(-7.6 55.71) rotate(-87.46)"/><circle class="cls-3" cx="19.14" cy="36.19" r="1.55" transform="translate(-17.97 53.52) rotate(-87.45)"/><circle class="cls-3" cx="11.55" cy="40.77" r="1.55" transform="translate(-29.78 50.32) rotate(-87.46)"/><circle class="cls-3" cx="9.54" cy="43.69" r="1.55" transform="translate(-34.62 51.1) rotate(-87.46)"/><circle class="cls-3" cx="67.56" cy="24.68" r="1.55" transform="translate(39.82 90.89) rotate(-87.46)"/><circle class="cls-3" cx="79.5" cy="17.37" r="1.55" transform="translate(58.53 95.84) rotate(-87.45)"/><circle class="cls-3" cx="66.51" cy="38.99" r="1.55" transform="translate(24.52 103.52) rotate(-87.46)"/><circle class="cls-3" cx="63.8" cy="35.54" r="1.55" transform="translate(25.38 97.52) rotate(-87.46)"/><circle class="cls-3" cx="74.59" cy="28.56" r="1.55" transform="translate(42.65 101.62) rotate(-87.45)"/><circle class="cls-3" cx="77.73" cy="25.68" r="1.55" transform="translate(48.54 102.02) rotate(-87.46)"/><circle class="cls-3" cx="74.91" cy="18.16" r="1.55" transform="translate(53.36 92.01) rotate(-87.46)"/><circle class="cls-3" cx="77.8" cy="20.79" r="1.55" transform="translate(53.48 97.41) rotate(-87.45)"/><circle class="cls-3" cx="50.54" cy="30.22" r="1.55" transform="translate(18.02 79.18) rotate(-87.46)"/><circle class="cls-3" cx="84.19" cy="32.31" r="1.55" transform="translate(48.08 114.8) rotate(-87.46)"/><circle class="cls-3" cx="51.4" cy="35.36" r="1.55" transform="translate(13.71 84.96) rotate(-87.46)"/><circle class="cls-3" cx="52.99" cy="41.92" r="1.55" transform="translate(8.67 92.82) rotate(-87.46)"/><circle class="cls-3" cx="48.74" cy="38.4" r="1.55" transform="translate(8.12 85.21) rotate(-87.46)"/><circle class="cls-3" cx="19.09" cy="76.42" r="1.55" transform="translate(-58.2 91.92) rotate(-87.45)"/><circle class="cls-3" cx="32.48" cy="77.94" r="1.55" transform="translate(-46.91 106.76) rotate(-87.47)"/><circle class="cls-3" cx="19.31" cy="50.16" r="1.55" transform="translate(-31.76 67.05) rotate(-87.46)"/><circle class="cls-3" cx="79.13" cy="50.87" r="1.55" transform="translate(24.7 127.47) rotate(-87.45)"/><circle class="cls-3" cx="77.84" cy="54.78" r="1.55" transform="translate(19.56 129.93) rotate(-87.45)"/><circle class="cls-3" cx="46.61" cy="13.96" r="1.55" transform="translate(-1.77 7.8) rotate(-9.62)"/><circle class="cls-3" cx="26.09" cy="8.93" r="1.55" transform="translate(-1.22 4.31) rotate(-9.62)"/><circle class="cls-3" cx="48.84" cy="10.86" r="1.55" transform="translate(-1.22 8.1) rotate(-9.59)"/><circle class="cls-3" cx="57.18" cy="15.19" r="1.55" transform="translate(-1.83 9.59) rotate(-9.62)"/><circle class="cls-3" cx="42.62" cy="3.65" r="1.55" transform="translate(-0.11 6.98) rotate(-9.6)"/><circle class="cls-2" cx="67.97" cy="50.39" r="2.55" transform="translate(14.52 115.87) rotate(-87.46)"/><circle class="cls-2" cx="74.1" cy="48.78" r="2.55" transform="translate(21.98 120.47) rotate(-87.46)"/><circle class="cls-2" cx="70.69" cy="59.13" r="1.46" transform="translate(8.37 126.93) rotate(-87.45)"/><circle class="cls-2" cx="39.93" cy="80.26" r="1.46" transform="translate(-42.11 116.42) rotate(-87.46)"/><circle class="cls-2" cx="29.75" cy="86.62" r="1.46" transform="translate(-58.2 112.33) rotate(-87.46)"/><circle class="cls-2" cx="22.34" cy="84.38" r="1.46" transform="translate(-63.04 102.78) rotate(-87.46)"/><circle class="cls-2" cx="33.27" cy="87.35" r="1.46" transform="translate(-55.56 116.55) rotate(-87.46)"/><circle class="cls-2" cx="44.14" cy="79.71" r="1.46" transform="translate(-37.53 120.1) rotate(-87.47)"/><circle class="cls-2" cx="41.54" cy="72.66" r="1.46" transform="translate(-32.99 110.76) rotate(-87.46)"/><circle class="cls-2" cx="41.52" cy="77.27" r="1.46" transform="translate(-37.6 115.16) rotate(-87.46)"/><circle class="cls-2" cx="57.9" cy="53.33" r="1.46" transform="translate(1.96 108.62) rotate(-87.46)"/><circle class="cls-3" cx="53.31" cy="60.72" r="1.55" transform="translate(-9.82 111.1) rotate(-87.45)"/><circle class="cls-2" cx="58.22" cy="57.33" r="1.46" transform="translate(-1.73 112.76) rotate(-87.45)"/><circle class="cls-2" cx="53.27" cy="38.52" r="1.46" transform="translate(12.33 89.85) rotate(-87.45)"/><circle class="cls-2" cx="48.22" cy="33.21" r="1.46" transform="translate(12.8 79.73) rotate(-87.46)"/><circle class="cls-2" cx="61.67" cy="41.15" r="1.46" transform="translate(17.72 100.75) rotate(-87.46)"/><circle class="cls-2" cx="47.42" cy="28.67" r="1.46" transform="translate(16.58 74.6) rotate(-87.46)"/><circle class="cls-2" cx="82.78" cy="25.84" r="1.46" transform="translate(53.19 107.21) rotate(-87.45)"/><circle class="cls-2" cx="25.31" cy="13.66" r="2.55" transform="translate(-2.01 4.22) rotate(-9.57)"/><circle class="cls-2" cx="53.48" cy="11.95" r="2.55" transform="translate(-1.34 8.87) rotate(-9.56)"/><circle class="cls-1" cx="56.16" cy="32.73" r="3.19" transform="translate(20.88 87.2) rotate(-87.46)"/><circle class="cls-1" cx="43.53" cy="36.42" r="3.19" transform="translate(5.12 78.11) rotate(-87.46)"/><circle class="cls-1" cx="20.06" cy="30.87" r="3.19" transform="translate(-11.76 49.35) rotate(-87.46)"/><circle class="cls-1" cx="37.38" cy="30.73" r="2.28" transform="translate(4.94 66.53) rotate(-87.46)"/><circle class="cls-1" cx="73.76" cy="32.79" r="2.28" transform="translate(37.64 104.85) rotate(-87.46)"/><circle class="cls-1" cx="81.08" cy="21.96" r="1.6" transform="translate(55.46 101.8) rotate(-87.46)"/><circle class="cls-1" cx="71.67" cy="15.82" r="1.6" transform="translate(52.59 86.54) rotate(-87.45)"/><circle class="cls-1" cx="76.76" cy="14.51" r="1.6" transform="translate(58.78 90.37) rotate(-87.46)"/><circle class="cls-1" cx="75.14" cy="41.63" r="1.6" transform="translate(30.12 114.67) rotate(-87.45)"/><circle class="cls-1" cx="19.05" cy="45.41" r="2.28" transform="translate(-27.26 62.24) rotate(-87.46)"/><circle class="cls-1" cx="15.47" cy="39.13" r="2.28" transform="translate(-24.4 52.66) rotate(-87.46)"/><circle class="cls-1" cx="14.32" cy="33.92" r="2.28" transform="translate(-20.29 46.54) rotate(-87.46)"/><circle class="cls-1" cx="29.14" cy="36.41" r="2.28" transform="translate(-8.62 63.72) rotate(-87.46)"/><circle class="cls-1" cx="46.57" cy="54.39" r="2.28" transform="translate(-9.92 98.32) rotate(-87.46)"/><circle class="cls-1" cx="39.07" cy="40.89" r="2.28" transform="translate(-3.6 77.93) rotate(-87.46)"/><circle class="cls-1" cx="48.18" cy="81.34" r="2.28" transform="translate(-35.31 125.69) rotate(-87.46)"/><circle class="cls-1" cx="30.43" cy="12.24" r="2.28" transform="translate(-1.71 5.06) rotate(-9.59)"/><circle class="cls-1" cx="26.99" cy="19.38" r="2.28" transform="translate(-2.94 4.57) rotate(-9.57)"/><ellipse class="cls-1" cx="75.36" cy="59.46" rx="2.28" ry="2.28" transform="translate(12.53 131.93) rotate(-87.47)"/><circle class="cls-1" cx="52.72" cy="24.6" r="3.19" transform="matrix(0.04, -1, 1, 0.04, 25.71, 76)"/><circle class="cls-1" cx="45.97" cy="20.07" r="3.19" transform="matrix(0.04, -1, 1, 0.04, 23.79, 64.92)"/><path class="cls-3" d="M58.92,70.11a2.46,2.46,0,1,0,2.57-2.35A2.46,2.46,0,0,0,58.92,70.11Z" transform="translate(-0.09 -0.18)"/><circle class="cls-3" cx="63.32" cy="78.87" r="2.46" transform="translate(-18.38 138.43) rotate(-87.45)"/><circle class="cls-2" cx="61.42" cy="32.25" r="1.46" transform="translate(26.39 92) rotate(-87.46)"/><circle class="cls-2" cx="56.98" cy="70.15" r="1.46" transform="translate(-15.73 123.77) rotate(-87.45)"/><circle class="cls-1" cx="65.21" cy="73.53" r="2.28" transform="translate(-11.23 135.23) rotate(-87.45)"/><path class="cls-1" d="M64.37,56.57a2.28,2.28,0,1,0,2.37-2.17A2.28,2.28,0,0,0,64.37,56.57Z" transform="translate(-0.09 -0.18)"/><circle class="cls-1" cx="67.71" cy="78.76" r="1.44" transform="translate(-14.1 142.7) rotate(-87.44)"/><circle class="cls-1" cx="69.64" cy="74.35" r="1.44" transform="translate(-7.82 140.44) rotate(-87.46)"/><circle class="cls-1" cx="43.32" cy="63.29" r="1.44" transform="matrix(0.04, -1, 1, 0.04, -21.92, 103.57)"/><circle class="cls-1" cx="17.52" cy="79.7" r="1.44" transform="translate(-62.97 93.49) rotate(-87.46)"/><circle class="cls-1" cx="17.29" cy="84.44" r="1.44" transform="matrix(0.04, -1, 1, 0.04, -67.93, 97.79)"/><circle class="cls-1" cx="25.11" cy="66.16" r="1.44" transform="matrix(0.04, -1, 1, 0.04, -42.19, 88.13)"/><circle class="cls-1" cx="36.36" cy="80.54" r="1.44" transform="translate(-45.8 113.12) rotate(-87.46)"/><circle class="cls-1" cx="15.81" cy="73.96" r="1.44" transform="translate(-58.87 86.3) rotate(-87.46)"/><circle class="cls-1" cx="24.75" cy="42.8" r="1.44" transform="translate(-19.2 65.45) rotate(-87.46)"/><circle class="cls-1" cx="44.4" cy="31.58" r="1.44" transform="translate(10.79 74.36) rotate(-87.46)"/><circle class="cls-1" cx="47.21" cy="25.32" r="1.44" transform="translate(19.72 71.18) rotate(-87.45)"/><circle class="cls-1" cx="60.69" cy="36.77" r="1.44" transform="matrix(0.04, -1, 1, 0.04, 21.17, 95.59)"/><circle class="cls-1" cx="62.97" cy="11.77" r="1.44" transform="matrix(0.04, -1, 1, 0.04, 48.33, 73.97)"/><circle class="cls-1" cx="29.5" cy="8.05" r="1.44" transform="translate(20.06 36.98) rotate(-87.46)"/><circle class="cls-1" cx="21.9" cy="17.37" r="1.44" transform="translate(-2.68 3.71) rotate(-9.6)"/><circle class="cls-1" cx="15.17" cy="22.94" r="1.44" transform="translate(-3.7 2.67) rotate(-9.6)"/><circle class="cls-1" cx="51.54" cy="7.9" r="1.44" transform="translate(-0.69 8.55) rotate(-9.62)"/><circle class="cls-1" cx="51.51" cy="75.23" r="1.44" transform="translate(-26.02 123.18) rotate(-87.46)"/><circle class="cls-1" cx="65.28" cy="66.96" r="1.44" transform="translate(-4.6 129.03) rotate(-87.46)"/><circle class="cls-1" cx="56.54" cy="62.13" r="1.44" transform="translate(-8.13 115.67) rotate(-87.46)"/><circle class="cls-1" cx="60.11" cy="82.33" r="1.44" transform="translate(-24.9 138.55) rotate(-87.46)"/><circle class="cls-1" cx="59.94" cy="60.54" r="1.44" transform="translate(-3.3 117.54) rotate(-87.44)"/><circle class="cls-4" cx="46.17" cy="75.06" r="3.19" transform="translate(-30.95 117.67) rotate(-87.46)"/><circle class="cls-2" cx="56.43" cy="82.56" r="1.46" transform="translate(-28.64 135.11) rotate(-87.46)"/><circle class="cls-2" cx="53.87" cy="72.68" r="1.46" transform="translate(-21.23 123.08) rotate(-87.45)"/><circle class="cls-2" cx="51.85" cy="79.02" r="1.46" transform="translate(-29.48 127.14) rotate(-87.46)"/><circle class="cls-2" cx="14.22" cy="77.35" r="1.46" transform="translate(-63.78 87.95) rotate(-87.47)"/><circle class="cls-2" cx="14.32" cy="81.73" r="1.46" transform="translate(-68.06 92.25) rotate(-87.47)"/><circle class="cls-2" cx="19.72" cy="82.09" r="1.46" transform="translate(-63.25 97.97) rotate(-87.46)"/><circle class="cls-2" cx="53.02" cy="82.3" r="1.46" transform="translate(-31.64 131.45) rotate(-87.46)"/><circle class="cls-4" cx="58.03" cy="76.09" r="3.19" transform="translate(-20.65 130.5) rotate(-87.45)"/><circle class="cls-4" cx="15.74" cy="27.37" r="2.1" transform="translate(-12.4 41.7) rotate(-87.45)"/><circle class="cls-4" cx="13.88" cy="43.76" r="2.09" transform="translate(-30.66 55.05) rotate(-86.88)"/><circle class="cls-4" cx="29.39" cy="64.98" r="2.09" transform="translate(-36.92 91.29) rotate(-87.46)"/><circle class="cls-4" cx="39.52" cy="65.05" r="2.09" transform="translate(-27.31 101.47) rotate(-87.46)"/><circle class="cls-4" cx="63.78" cy="7.48" r="2.09" transform="translate(53.39 70.68) rotate(-87.46)"/><circle class="cls-1" cx="10.99" cy="57.54" r="2.28" transform="matrix(0.04, -1, 1, 0.04, -47.08, 65.78)"/><circle class="cls-4" cx="12.15" cy="74.51" r="1.45" transform="translate(-62.92 83.16) rotate(-87.46)"/><circle class="cls-4" cx="62.55" cy="104.46" r="1.45" transform="translate(-44.68 162.13) rotate(-87.46)"/><circle class="cls-4" cx="53.04" cy="107.89" r="1.45" transform="translate(-57.19 155.91) rotate(-87.46)"/><circle class="cls-4" cx="40.85" cy="83.22" r="1.45" transform="translate(-44.19 120.16) rotate(-87.46)"/><circle class="cls-4" cx="40.26" cy="96.49" r="1.45" transform="translate(-58.02 132.26) rotate(-87.46)"/><circle class="cls-4" cx="45.9" cy="110.49" r="1.45" transform="translate(-66.61 151.26) rotate(-87.46)"/><circle class="cls-4" cx="6.32" cy="55.33" r="2.09" transform="translate(-49.33 59.01) rotate(-87.46)"/><circle class="cls-4" cx="11.43" cy="52.81" r="2.09" transform="translate(-41.93 61.71) rotate(-87.45)"/><circle class="cls-4" cx="35.19" cy="44.29" r="1.67" transform="translate(-10.71 77.3) rotate(-87.46)"/><circle class="cls-4" cx="21.28" cy="40.4" r="2.1" transform="translate(-20.13 59.68) rotate(-87.46)"/><circle class="cls-2" cx="25.03" cy="61.28" r="2.55" transform="translate(-37.39 83.39) rotate(-87.46)"/><circle class="cls-3" cx="13.7" cy="48.54" r="2.46" transform="translate(-35.49 59.88) rotate(-87.46)"/><circle class="cls-1" cx="20.01" cy="59.41" r="2.28" transform="translate(-40.32 76.6) rotate(-87.47)"/><circle class="cls-1" cx="34.53" cy="65.01" r="2.28" transform="translate(-32.04 96.44) rotate(-87.46)"/><circle class="cls-1" cx="32.3" cy="73.22" r="2.28" transform="translate(-42.37 102.07) rotate(-87.47)"/><circle class="cls-1" cx="16.8" cy="53.8" r="2.28" transform="translate(-37.79 68.01) rotate(-87.46)"/><circle class="cls-4" cx="22.24" cy="54.41" r="2.09" transform="translate(-33.2 74.03) rotate(-87.46)"/><circle class="cls-4" cx="11.57" cy="66.7" r="2.09" transform="translate(-55.66 75.12) rotate(-87.46)"/><circle class="cls-4" cx="29.91" cy="30.76" r="2.1" transform="translate(-2.24 59.09) rotate(-87.46)"/><circle class="cls-4" cx="69.93" cy="28.79" r="2.1" transform="translate(37.97 97.19) rotate(-87.46)"/><circle class="cls-4" cx="33.95" cy="33.84" r="2.1" transform="translate(-1.46 66.08) rotate(-87.46)"/><circle class="cls-4" cx="80.01" cy="35.8" r="2.09" transform="translate(40.6 113.97) rotate(-87.46)"/><circle class="cls-1" cx="29.87" cy="43.25" r="3.19" transform="translate(-14.75 71) rotate(-87.46)"/><circle class="cls-2" cx="68.7" cy="34.37" r="2.55" transform="translate(31.22 101.29) rotate(-87.45)"/><circle class="cls-3" cx="71.14" cy="39.4" r="1.55" transform="translate(28.54 108.54) rotate(-87.46)"/><circle class="cls-3" cx="75.29" cy="37.71" r="1.55" transform="translate(34.17 111.07) rotate(-87.45)"/><circle class="cls-1" cx="37.41" cy="23.43" r="2.28" transform="translate(12.25 59.58) rotate(-87.46)"/><circle class="cls-4" cx="42.84" cy="25.73" r="2.09" transform="translate(15.14 67.21) rotate(-87.46)"/><path class="cls-4" d="M41.54,13.07A2.09,2.09,0,1,0,44,14.78,2.09,2.09,0,0,0,41.54,13.07Z" transform="translate(-0.09 -0.18)"/><circle class="cls-4" cx="39.62" cy="19.09" r="2.1" transform="translate(-2.72 6.69) rotate(-9.59)"/><circle class="cls-4" cx="23.09" cy="22.38" r="2.1" transform="translate(-3.5 3.98) rotate(-9.6)"/><circle class="cls-4" cx="73.2" cy="11.48" r="2.09" transform="translate(58.4 83.93) rotate(-87.46)"/><circle class="cls-1" cx="62.06" cy="57.26" r="1.44" transform="translate(2 116.52) rotate(-87.44)"/><circle class="cls-4" cx="66.09" cy="61.93" r="2.1" transform="translate(1.19 125.02) rotate(-87.45)"/><circle class="cls-4" cx="57.24" cy="39.45" r="2.09" transform="translate(15.19 94.69) rotate(-87.46)"/><circle class="cls-4" cx="48.25" cy="42.82" r="2.09" transform="translate(3.23 88.94) rotate(-87.46)"/><circle class="cls-4" cx="53.35" cy="51.83" r="2.09" transform="translate(-0.9 102.65) rotate(-87.46)"/><circle class="cls-3" cx="59.48" cy="48.77" r="1.55" transform="translate(8.03 105.86) rotate(-87.46)"/><circle class="cls-3" cx="66.49" cy="44.98" r="2.46" transform="translate(18.51 109.23) rotate(-87.46)"/><circle class="cls-2" cx="62.42" cy="46.26" r="1.46" transform="translate(13.35 106.39) rotate(-87.46)"/><circle class="cls-4" cx="57.87" cy="44.76" r="2.1" transform="translate(10.5 100.41) rotate(-87.46)"/><circle class="cls-4" cx="51.36" cy="3.71" r="2.1" transform="translate(0.01 8.44) rotate(-9.6)"/><circle class="cls-4" cx="58.82" cy="10.38" r="2.09" transform="translate(-0.73 15.91) rotate(-15.49)"/><circle class="cls-3" cx="46.46" cy="6.71" r="2.46" transform="matrix(0.99, -0.17, 0.17, 0.99, -0.56, 7.65)"/><circle class="cls-3" cx="33.88" cy="6.81" r="2.46" transform="matrix(0.99, -0.17, 0.17, 0.99, -0.76, 5.57)"/><circle class="cls-3" cx="31.95" cy="17.46" r="2.46" transform="translate(-2.56 5.39) rotate(-9.6)"/><circle class="cls-2" cx="37.73" cy="8.91" r="1.46" transform="translate(-1.05 6.22) rotate(-9.58)"/><circle class="cls-2" cx="39.41" cy="12.18" r="1.46" transform="translate(-1.57 6.56) rotate(-9.59)"/><circle class="cls-2" cx="20.86" cy="13.88" r="1.46" transform="translate(-2.12 3.5) rotate(-9.61)"/><circle class="cls-2" cx="40.6" cy="6.78" r="1.46" transform="translate(-0.66 6.69) rotate(-9.61)"/><circle class="cls-1" cx="37.86" cy="4.88" r="1.44" transform="translate(27.4 41.45) rotate(-81.59)"/><circle class="cls-1" cx="18.89" cy="23.85" r="1.44" transform="translate(-3.81 3.31) rotate(-9.62)"/><circle class="cls-1" cx="33.47" cy="21.71" r="1.44" transform="translate(-3.25 5.72) rotate(-9.62)"/><circle class="cls-1" cx="9.66" cy="48.36" r="1.44" transform="translate(-8.05 2.12) rotate(-9.64)"/><circle class="cls-1" cx="36.57" cy="16.17" r="1.44" transform="translate(-2.28 6.16) rotate(-9.62)"/><circle class="cls-1" cx="3.36" cy="51.56" r="1.44" transform="translate(-8.67 1.11) rotate(-9.63)"/><circle class="cls-4" cx="43.41" cy="10.56" r="2.09" transform="translate(-1.24 7.18) rotate(-9.57)"/><circle class="cls-4" cx="35.34" cy="12.3" r="2.09" transform="translate(-1.65 5.88) rotate(-9.6)"/><circle class="cls-1" cx="53.3" cy="18.75" r="2.28" transform="translate(-2.47 8.95) rotate(-9.58)"/><circle class="cls-3" cx="66.93" cy="14.16" r="2.46" transform="translate(-1.52 11.16) rotate(-9.59)"/><circle class="cls-2" cx="60.8" cy="14.59" r="1.46" transform="translate(-1.67 10.15) rotate(-9.59)"/><path class="cls-2" d="M60.25,4.14a1.46,1.46,0,1,0,1.68,1.19A1.45,1.45,0,0,0,60.25,4.14Z" transform="translate(-0.09 -0.18)"/><circle class="cls-2" cx="63.08" cy="17.03" r="1.46" transform="matrix(0.99, -0.17, 0.17, 0.99, -2.05, 10.54)"/><circle class="cls-2" cx="49.91" cy="15.17" r="1.46" transform="translate(-1.92 8.35) rotate(-9.59)"/><path class="cls-4" d="M58.48,17.68A2.09,2.09,0,1,0,60.9,19.4,2.09,2.09,0,0,0,58.48,17.68Z" transform="translate(-0.09 -0.18)"/><circle class="cls-4" cx="18.03" cy="19.74" r="2.09" transform="translate(-3.13 3.1) rotate(-9.6)"/><circle class="cls-4" cx="51.16" cy="57.23" r="2.1" transform="translate(-8.37 105.62) rotate(-87.46)"/><circle class="cls-3" cx="53.75" cy="68.8" r="1.55" transform="translate(-17.45 119.29) rotate(-87.47)"/><circle class="cls-3" cx="60.75" cy="65.01" r="2.46" transform="translate(-6.98 122.65) rotate(-87.46)"/><circle class="cls-3" cx="47.75" cy="62.25" r="2.46" transform="translate(-16.65 107) rotate(-87.45)"/><circle class="cls-2" cx="56.69" cy="66.29" r="1.46" transform="translate(-12.14 119.81) rotate(-87.47)"/><circle class="cls-1" cx="45.36" cy="67.35" r="2.28" transform="translate(-24.03 109.49) rotate(-87.45)"/><circle class="cls-1" cx="29.13" cy="50.44" r="2.28" transform="translate(-22.64 77.13) rotate(-87.46)"/><circle class="cls-3" cx="33.25" cy="54.27" r="2.46" transform="matrix(0.04, -1, 1, 0.04, -22.54, 84.89)"/><circle class="cls-2" cx="30.94" cy="59.75" r="2.55" transform="translate(-30.21 87.83) rotate(-87.45)"/><circle class="cls-2" cx="37.37" cy="76.01" r="2.55" transform="translate(-40.33 109.79) rotate(-87.45)"/><path class="cls-2" d="M35.08,69.91a2.55,2.55,0,1,0,2.66-2.44A2.55,2.55,0,0,0,35.08,69.91Z" transform="translate(-0.09 -0.18)"/><circle class="cls-1" cx="35.04" cy="48.91" r="2.28" transform="translate(-15.47 81.57) rotate(-87.46)"/><circle class="cls-1" cx="38.88" cy="54.46" r="2.28" transform="translate(-17.34 90.71) rotate(-87.46)"/><circle class="cls-2" cx="23.97" cy="74.27" r="2.55" transform="translate(-51.38 94.74) rotate(-87.46)"/><circle class="cls-3" cx="26.6" cy="82.7" r="2.46" transform="translate(-57.29 105.43) rotate(-87.46)"/><circle class="cls-3" cx="71.9" cy="54.26" r="2.46" transform="translate(14.41 123.5) rotate(-87.46)"/><circle class="cls-2" cx="76.86" cy="45.34" r="1.46" transform="translate(28.06 119.93) rotate(-87.46)"/><circle class="cls-2" cx="83.28" cy="38.18" r="1.46" transform="translate(41.34 119.5) rotate(-87.45)"/><circle class="cls-1" cx="80.37" cy="47.22" r="1.44" transform="translate(29.54 125.24) rotate(-87.46)"/><circle class="cls-3" cx="81.07" cy="41.89" r="2.46" transform="translate(35.54 120.85) rotate(-87.46)"/><circle class="cls-3" cx="13.77" cy="70.8" r="1.55" transform="translate(-57.66 81.25) rotate(-87.47)"/><circle class="cls-1" cx="19.34" cy="71.62" r="2.28" transform="translate(-53.16 87.6) rotate(-87.47)"/><circle class="cls-3" cx="16.46" cy="68.35" r="1.55" transform="translate(-52.64 81.6) rotate(-87.47)"/><circle class="cls-3" cx="23.4" cy="69.87" r="1.55" transform="translate(-47.53 89.95) rotate(-87.45)"/><circle class="cls-3" cx="15.32" cy="58.29" r="1.55" transform="translate(-43.7 70.82) rotate(-87.45)"/><circle class="cls-3" cx="32.29" cy="68.79" r="1.55" transform="translate(-36.99 100.02) rotate(-89.28)"/><circle class="cls-2" cx="20.69" cy="65.76" r="2.55" transform="matrix(0.04, -1, 1, 0.04, -46.01, 83.34)"/><circle class="cls-3" cx="11.07" cy="62.22" r="1.55" transform="translate(-51.66 70.35) rotate(-87.47)"/><circle class="cls-1" cx="15.67" cy="63.89" r="2.28" transform="translate(-48.95 76.53) rotate(-87.45)"/><circle class="cls-4" cx="22.54" cy="79.1" r="2.09" transform="translate(-57.57 97.93) rotate(-87.46)"/><circle class="cls-4" cx="71.58" cy="43.95" r="2.09" transform="translate(24.4 113.33) rotate(-87.45)"/><circle class="cls-3" cx="72.37" cy="64.02" r="2.46" transform="translate(5.12 133.31) rotate(-87.46)"/><circle class="cls-2" cx="69.32" cy="68.95" r="2.55" transform="translate(-2.74 134.95) rotate(-87.45)"/><circle class="cls-1" cx="68.6" cy="9" r="2.28" transform="translate(56.48 76.96) rotate(-87.46)"/><circle class="cls-4" cx="58.65" cy="27.02" r="2.1" transform="translate(28.96 84.23) rotate(-87.46)"/><circle class="cls-4" cx="66.48" cy="83.27" r="2.1" transform="translate(-19.75 145.82) rotate(-87.46)"/><circle class="cls-1" cx="28.25" cy="77.53" r="2.28" transform="translate(-50.56 102.13) rotate(-87.45)"/><circle class="cls-4" cx="52.57" cy="64.65" r="2.09" transform="translate(-14.44 114.12) rotate(-87.46)"/><circle class="cls-4" cx="43.2" cy="58.6" r="2.1" transform="translate(-17.35 98.99) rotate(-87.46)"/><circle class="cls-4" cx="49.95" cy="70.18" r="2.1" transform="translate(-22.47 116.79) rotate(-87.46)"/><circle class="cls-5" cx="36.72" cy="90.55" r="2.33" transform="translate(-55.45 123.05) rotate(-87.47)"/><circle class="cls-5" cx="55.23" cy="86.68" r="1.47" transform="translate(-33.91 137.84) rotate(-87.46)"/><circle class="cls-3" cx="62.85" cy="100.82" r="1.38" transform="translate(-40.76 158.94) rotate(-87.45)"/><circle class="cls-3" cx="46.33" cy="92" r="1.38" transform="translate(-47.72 134.03) rotate(-87.47)"/><circle class="cls-3" cx="37.09" cy="94.79" r="1.38" transform="translate(-59.34 127.47) rotate(-87.46)"/><circle class="cls-3" cx="56.45" cy="100.19" r="1.38" transform="translate(-46.24 151.98) rotate(-87.47)"/><circle class="cls-3" cx="55.13" cy="105.51" r="1.38" transform="translate(-52.83 155.71) rotate(-87.44)"/><circle class="cls-3" cx="42.01" cy="99.55" r="1.38" transform="translate(-59.39 136.94) rotate(-87.46)"/><circle class="cls-3" cx="61.94" cy="86.4" r="2.41" transform="translate(-27.22 144.27) rotate(-87.46)"/><circle class="cls-1" cx="37.5" cy="85.51" r="2.16" transform="translate(-49.68 119) rotate(-87.46)"/><circle class="cls-1" cx="41.45" cy="92.83" r="2.16" transform="translate(-53.21 129.96) rotate(-87.47)"/><circle class="cls-1" cx="58.93" cy="91.6" r="2.16" transform="translate(-35.29 146.22) rotate(-87.46)"/><circle class="cls-5" cx="44.65" cy="96.6" r="2.33" transform="translate(-53.93 136.76) rotate(-87.46)"/><circle class="cls-1" cx="48.87" cy="98.86" r="2.16" transform="translate(-52.16 143.11) rotate(-87.46)"/><circle class="cls-1" cx="40.71" cy="88.35" r="1.37" transform="translate(-49.45 124.92) rotate(-87.46)"/><circle class="cls-5" cx="52.78" cy="102.16" r="2.33" transform="translate(-51.71 150.18) rotate(-87.46)"/><circle class="cls-1" cx="66.1" cy="87.44" r="1.37" transform="translate(-24.28 149.42) rotate(-87.46)"/><circle class="cls-1" cx="50.29" cy="105.75" r="1.37" transform="translate(-57.68 151.12) rotate(-87.46)"/><circle class="cls-1" cx="49.56" cy="110.18" r="1.37" transform="translate(-62.81 154.59) rotate(-87.44)"/><circle class="cls-1" cx="60.39" cy="107.19" r="1.37" transform="translate(-49.46 162.59) rotate(-87.46)"/><circle class="cls-1" cx="42.79" cy="85.88" r="1.37" transform="translate(-45.01 124.62) rotate(-87.44)"/><circle class="cls-1" cx="45.39" cy="100.87" r="1.37" transform="translate(-57.48 141.57) rotate(-87.46)"/><circle class="cls-1" cx="38.76" cy="99.37" r="1.37" transform="translate(-62.33 133.5) rotate(-87.46)"/><circle class="cls-1" cx="44.16" cy="89.2" r="1.37" transform="translate(-47.01 129.19) rotate(-87.46)"/><circle class="cls-1" cx="55.36" cy="93.6" r="1.37" transform="translate(-40.69 144.58) rotate(-87.46)"/><circle class="cls-1" cx="41.77" cy="104.92" r="1.37" transform="translate(-64.99 141.82) rotate(-87.46)"/><circle class="cls-1" cx="55.19" cy="87.45" r="3.02" transform="translate(-34.72 138.52) rotate(-87.45)"/><circle class="cls-3" cx="40.01" cy="102.01" r="1.38" transform="translate(-63.76 137.3) rotate(-87.47)"/><circle class="cls-3" cx="47.42" cy="107.33" r="1.38" transform="translate(-62 149.78) rotate(-87.46)"/><circle class="cls-3" cx="63.93" cy="90.46" r="1.38" transform="translate(-29.36 150.15) rotate(-87.46)"/><circle class="cls-3" cx="44.36" cy="83.07" r="1.38" transform="translate(-40.69 123.5) rotate(-87.44)"/><circle class="cls-3" cx="48.52" cy="102.95" r="1.38" transform="translate(-56.58 146.65) rotate(-87.44)"/><circle class="cls-3" cx="50.52" cy="84.85" r="1.38" transform="translate(-36.58 131.39) rotate(-87.47)"/><circle class="cls-6" cx="51.94" cy="92.25" r="1.98" transform="translate(-42.62 139.85) rotate(-87.45)"/><circle class="cls-6" cx="53.52" cy="97.08" r="1.98" transform="translate(-45.94 146.07) rotate(-87.46)"/><circle class="cls-6" cx="49.03" cy="89.17" r="1.98" transform="translate(-42.32 134) rotate(-87.45)"/><circle class="cls-5" cx="45.34" cy="104.28" r="1.47" transform="translate(-60.94 144.75) rotate(-87.45)"/><circle class="cls-5" cx="46.61" cy="85.6" r="1.77" transform="translate(-45.01 118.93) rotate(-81.54)"/><circle class="cls-5" cx="57.54" cy="96.38" r="1.77" transform="translate(-46.35 138.93) rotate(-81.54)"/><circle class="cls-5" cx="59.84" cy="99.6" r="1.47" transform="translate(-42.4 154.78) rotate(-87.46)"/><circle class="cls-5" cx="43.84" cy="107.95" r="1.47" transform="translate(-66.05 146.78) rotate(-87.46)"/><circle class="cls-5" cx="48.79" cy="94.67" r="1.47" transform="translate(-48.05 139.04) rotate(-87.46)"/><circle class="cls-5" cx="57.22" cy="108.07" r="1.47" transform="matrix(0.04, -1, 1, 0.04, -53.38, 160.26)"/><circle class="cls-6" cx="58.75" cy="103.84" r="1.98" transform="translate(-47.68 157.74) rotate(-87.46)"/><circle class="cls-1" cx="63.25" cy="95.77" r="3.02" transform="matrix(0.04, -1, 1, 0.04, -35.32, 154.53)"/><path class="cls-7" d="M61.79,2.26S96,10.46,83.87,45.66c-13.48,39.09-10.8,18.08-16,45.22l-2.48,16.91-22,6.91-9.6-20.9s-6.13-8.53-15-6.7c-6.39,1.32-7.39-5.23-7.39-5.23L6.88,60.17s-11.33-6.11-3.56-14.7c7.49-8.28,8.9-5.58,7.72-13.94C9.28,19.15,25.39-5.83,61.79,2.26Z" transform="translate(-0.09 -0.18)"/></svg>